<?xml version="1.0" encoding="UTF-8"?>
<svg width="16px" height="16px" viewBox="0 0 16 16" version="1.1" xmlns="http://www.w3.org/2000/svg" xmlns:xlink="http://www.w3.org/1999/xlink">
    <!-- Generator: Sketch 50.2 (55047) - http://www.bohemiancoding.com/sketch -->
    <title>Calendar</title>
    <desc>Created with Sketch.</desc>
    <defs></defs>
    <g id="Calendar" stroke="none" stroke-width="1" fill="none" fill-rule="evenodd">
        <path d="M14.25125,15.5 L1.74875,15.5 C1.06,15.5 0.5,14.94 0.5,14.25125 L0.5,2.99875 C0.5,2.31 1.06,1.75 1.74875,1.75 L14.25125,1.75 C14.94,1.75 15.5,2.31 15.5,2.99875 L15.5,14.25125 C15.5,14.94 14.94,15.5 14.25125,15.5 Z M14.25,2.99875 L1.74875,3 L1.75,14.25125 L14.251875,14.25 L14.25,2.99875 Z M14.875,6.75 L1.125,6.75 C0.78,6.75 0.5,6.47 0.5,6.125 C0.5,5.78 0.78,5.5 1.125,5.5 L14.875,5.5 C15.220625,5.5 15.5,5.78 15.5,6.125 C15.5,6.47 15.220625,6.75 14.875,6.75 Z M11.75,4.25 C11.404375,4.25 11.125,3.97 11.125,3.625 L11.125,1.125 C11.125,0.78 11.404375,0.5 11.75,0.5 C12.095625,0.5 12.375,0.78 12.375,1.125 L12.375,3.625 C12.375,3.97 12.095625,4.25 11.75,4.25 Z M4.25,4.25 C3.905,4.25 3.625,3.97 3.625,3.625 L3.625,1.125 C3.625,0.78 3.905,0.5 4.25,0.5 C4.595,0.5 4.875,0.78 4.875,1.125 L4.875,3.625 C4.875,3.97 4.595,4.25 4.25,4.25 Z" id="Shape" stroke="#8F90A4" stroke-width="0.5" fill="#8F90A4" fill-rule="nonzero"></path>
    </g>
</svg>