<?xml version="1.0" encoding="UTF-8"?>
<svg width="16px" height="16px" viewBox="0 0 16 16" version="1.1" xmlns="http://www.w3.org/2000/svg" xmlns:xlink="http://www.w3.org/1999/xlink">
    <g id="Page-1" stroke="none" stroke-width="1" fill="none" fill-rule="evenodd">
        <g id="Desktop" transform="translate(-64.000000, -920.000000)" fill="#8F90A4">
            <g id="Group-13" transform="translate(48.000000, 790.000000)">
                <g id="Group-12" transform="translate(16.000000, 128.000000)">
                    <path d="M12.2280855,3.42492593 C12.4353631,2.44929111 13.3470532,1.84670291 14.3421104,2.03405668 C15.3161496,2.2416739 15.9177523,3.19704527 15.7307049,4.15154466 C15.5234272,5.12717948 14.5696183,5.72976768 13.61668,5.54241391 C12.6426408,5.33479669 12.0208078,4.37942531 12.2280855,3.42492593 Z M1.45030653,11.8028598 L4.62211113,13.3822685 C5.01827889,13.571469 5.49842154,13.4875624 5.81144916,13.1716807 L6.91764706,11.9714985 L6.64700337,11.7189616 C6.18806313,11.2977859 5.93780798,10.7079716 5.89540317,10.1395529 L4.85197775,11.2763902 L2.32647086,10.0128633 C1.82596055,9.76032634 1.24147536,9.97090995 0.991220211,10.475988 C0.761332722,10.9605085 0.949645968,11.5503229 1.45016045,11.8028598 L1.45030653,11.8028598 Z M8.75906127,16.4941176 L0.769991405,16.4941176 C0.353689824,16.4941176 0,16.8399756 0,17.2470588 C0,17.6541421 0.353689824,18 0.769991405,18 L8.98823529,18 C8.73862087,17.6342561 8.63454547,17.1659475 8.71747275,16.6976593 L8.75906127,16.4941176 Z M15.9494196,9.79792251 C15.9082917,9.3812768 15.515555,9.08995812 15.1026652,9.13145604 L13.8430209,9.21446019 L13.4301311,7.13123166 C13.3680366,6.79758178 13.2027114,6.5062631 12.9551427,6.27677464 L11.3245582,4.73551884 C11.1181133,4.54835326 10.8906936,4.42303456 10.6229758,4.36037105 L7.71168967,3.71423688 C7.4020223,3.65157754 7.07138013,3.73539415 6.8238114,3.96405765 L5.27547457,5.42231762 C4.96580721,5.7136363 4.9448324,6.23444344 5.27547457,6.54692772 C5.56416713,6.8382464 6.06013039,6.81791409 6.34882295,6.52577045 L7.66974006,5.29699893 L9.79798064,5.77712061 L7.03120595,8.77655306 C6.43284603,9.42268722 6.47396985,10.4431359 7.11346186,11.0681044 L7.77392042,11.693073 L9.88027784,13.6721401 L9.32304174,16.7969829 C9.24078583,17.2551265 9.46739215,17.7344358 9.90125264,17.921593 C10.4996126,18.1714138 11.1399221,17.7962743 11.2431446,17.192463 L11.9036031,13.4849412 C11.9656976,13.1512913 11.8415086,12.7973091 11.6149106,12.568654 L9.59158528,10.6522504 L12.0478668,8.00675845 L12.4397818,9.98582556 C12.5430043,10.4651348 12.9768689,10.7979514 13.4720064,10.7776191 L15.2477629,10.6523004 C15.6606527,10.6311431 15.9912949,10.2348422 15.9493453,9.79784335 L15.9494196,9.79792251 Z" id="Page-1"></path>
                </g>
            </g>
        </g>
    </g>
</svg>
